<svg width="268" height="193" viewBox="0 0 268 193" fill="none" xmlns="http://www.w3.org/2000/svg">
<path fill-rule="evenodd" clip-rule="evenodd" d="M124.263 179.757C115.438 182.723 105.989 184.329 96.1647 184.329C47.4727 184.329 8 144.857 8 96.1647C8 47.4727 47.4727 8 96.1647 8C105.989 8 115.438 9.60686 124.263 12.5721C95.2382 29.1256 75.6705 60.36 75.6705 96.1647C75.6705 131.969 95.2382 163.204 124.263 179.757ZM134 175.821C104.241 161.661 83.6705 131.315 83.6705 96.1647C83.6705 61.0144 104.241 30.6686 134 16.5083C163.759 30.6686 184.329 61.0144 184.329 96.1647C184.329 131.315 163.759 161.661 134 175.821ZM134 184.6C122.387 189.575 109.598 192.329 96.1647 192.329C43.0544 192.329 0 149.275 0 96.1647C0 43.0544 43.0544 0 96.1647 0C109.598 0 122.387 2.75428 134 7.72891C145.612 2.75428 158.402 0 171.835 0C224.946 0 268 43.0544 268 96.1647C268 149.275 224.946 192.329 171.835 192.329C158.402 192.329 145.612 189.575 134 184.6ZM143.737 12.5721C152.562 9.60686 162.011 8 171.835 8C220.527 8 260 47.4727 260 96.1647C260 144.857 220.527 184.329 171.835 184.329C162.011 184.329 152.562 182.723 143.737 179.757C172.762 163.204 192.329 131.969 192.329 96.1647C192.329 60.36 172.762 29.1256 143.737 12.5721Z" fill="white" fill-opacity="0.08"/>
</svg>
